<?xml version="1.0" encoding="UTF-8" standalone="no"?><!DOCTYPE svg PUBLIC "-//W3C//DTD SVG 1.1//EN" "http://www.w3.org/Graphics/SVG/1.1/DTD/svg11.dtd"><svg width="100%" height="100%" viewBox="0 0 1830 300" version="1.1" xmlns="http://www.w3.org/2000/svg" xmlns:xlink="http://www.w3.org/1999/xlink" xml:space="preserve" xmlns:serif="http://www.serif.com/" style="fill-rule:evenodd;clip-rule:evenodd;stroke-linejoin:round;stroke-miterlimit:1.41421;"><rect id="sfcloud-large" x="0" y="0" width="1830" height="300" style="fill:none;"/><g id="sfcloud-large1" serif:id="sfcloud-large"><path d="M300,30c0,-16.557 -13.443,-30 -30,-30l-240,0c-16.557,0 -30,13.443 -30,30l0,240c0,16.557 13.443,30 30,30l240,0c16.557,0 30,-13.443 30,-30l0,-240Z" style="fill:#007dbd;"/><path d="M225.973,38.889c-16.691,0.571 -31.263,9.785 -42.109,22.497c-12.009,13.961 -19.996,30.505 -25.759,47.404c-10.292,-8.444 -18.229,-19.369 -34.756,-24.121c-12.768,-3.671 -26.177,-2.162 -38.512,7.029c-5.842,4.362 -9.867,10.951 -11.78,17.165c-4.957,16.111 5.206,30.458 9.826,35.603l10.102,10.814c2.077,2.124 7.093,7.658 4.638,15.586c-2.64,8.634 -13.041,14.206 -23.708,10.931c-4.767,-1.462 -11.611,-5.01 -10.075,-9.999c0.627,-2.048 2.092,-3.589 2.883,-5.336c0.714,-1.526 1.063,-2.66 1.28,-3.339c1.948,-6.355 -0.718,-14.632 -7.53,-16.738c-6.36,-1.951 -12.864,-0.405 -15.387,7.778c-2.859,9.299 1.591,26.178 25.434,33.523c27.932,8.596 51.555,-6.619 54.906,-26.447c2.113,-12.42 -3.501,-21.654 -13.772,-33.52l-8.377,-9.267c-5.068,-5.065 -6.811,-13.702 -1.564,-20.338c4.433,-5.605 10.735,-7.987 21.074,-5.18c15.085,4.09 21.803,14.558 33.018,23.002c-4.623,15.193 -7.655,30.443 -10.392,44.116l-1.681,10.202c-8.016,42.045 -14.139,65.143 -30.045,78.4c-3.208,2.283 -7.788,5.696 -14.69,5.939c-3.627,0.111 -4.796,-2.385 -4.846,-3.475c-0.082,-2.534 2.057,-3.7 3.478,-4.84c2.13,-1.163 5.344,-3.085 5.124,-9.246c-0.232,-7.281 -6.261,-13.591 -14.98,-13.301c-6.528,0.22 -16.48,6.357 -16.102,17.608c0.384,11.622 11.212,20.329 27.543,19.776c8.728,-0.293 28.222,-3.844 47.427,-26.673c22.357,-26.18 28.609,-56.181 33.311,-78.143l5.253,-28.999c2.913,0.352 6.033,0.589 9.426,0.668c27.847,0.589 41.766,-13.828 41.983,-24.323c0.141,-6.349 -4.163,-12.604 -10.192,-12.454c-4.307,0.12 -9.727,2.997 -11.022,8.956c-1.278,5.845 8.856,11.127 0.937,16.269c-5.625,3.639 -15.709,6.199 -29.913,4.122l2.581,-14.274c5.271,-27.065 11.772,-60.353 36.438,-61.167c1.799,-0.085 8.37,0.076 8.523,4.429c0.044,1.445 -0.32,1.826 -2.016,5.145c-1.734,2.59 -2.388,4.805 -2.303,7.336c0.238,6.906 5.491,11.453 13.099,11.189c10.172,-0.343 13.093,-10.242 12.926,-15.334c-0.416,-11.965 -13.022,-19.524 -29.699,-18.973Z" style="fill:#fefefe;fill-rule:nonzero;"/><path d="M612.349,103.388l-46.356,128.475c-8.638,24.154 -17.761,52.023 -48.319,52.023c-7.401,0 -11.61,-0.991 -15.792,-1.728l0.62,-8.025c0.894,-5.684 4.879,-9.376 10.163,-9.089c0.507,0.04 1.03,0.09 1.542,0.09c20.716,0 27.621,-28.594 27.621,-31.059c0,-2.707 -2.96,-9.117 -4.446,-13.315l-42.652,-117.372l16.162,0c0.04,0 0.068,0.028 0.124,0.028c4.908,0 9.652,3.383 11.689,7.947l31.2,96.082l0.495,0l31.898,-96.133c2.06,-4.541 6.793,-7.896 11.678,-7.896c0.056,0 0.067,-0.028 0.123,-0.028l14.25,0Zm686.164,0l-46.356,128.475c-8.638,24.154 -17.772,52.023 -48.336,52.023c-7.389,0 -11.599,-0.991 -15.791,-1.728l0.63,-8.025c0.895,-5.684 4.885,-9.376 10.152,-9.089c0.524,0.04 1.036,0.09 1.542,0.09c20.716,0 27.632,-28.594 27.632,-31.059c0,-2.707 -2.971,-9.117 -4.457,-13.315l-42.652,-117.372l16.163,0c0.039,0 0.067,0.028 0.112,0.028c4.907,0 9.668,3.383 11.7,7.947l31.2,96.082l0.507,0l31.886,-96.133c2.049,-4.541 6.793,-7.896 11.678,-7.896c0.056,0 0.084,-0.028 0.123,-0.028l14.267,0Zm-324.415,-2.954c38.223,0 63.846,27.621 63.846,65.833c0,36 -26.118,65.827 -63.846,65.827c-37.965,0 -64.1,-29.827 -64.1,-65.827c0,-38.212 25.623,-65.833 64.1,-65.833Zm462.491,-39.078c-8.823,-4.656 -29.165,-6.372 -39.214,-6.372c-52.939,0 -86.271,36.518 -86.271,88.477c0,52.939 32.352,88.476 86.271,88.476c10.784,0 29.901,-1.715 39.214,-7.352c0,0 0,0 0,-0.001c-0.216,-3.236 -1.846,-6.214 -4.457,-8.139c-2.61,-1.925 -5.936,-2.603 -9.092,-1.853c-8.629,2.026 -18.376,2.64 -25.665,2.64c-45.096,0 -69.36,-30.636 -69.36,-73.771c0,-42.4 24.999,-73.772 69.36,-73.772c7.51,0 16.362,0.671 24.578,2.553c3.421,0.798 7.021,0.049 9.84,-2.048c2.819,-2.097 4.572,-5.329 4.791,-8.836c0.005,-0.001 0.005,-0.002 0.005,-0.002Zm46.344,105.143c0,34.067 17.891,65.438 58.331,65.438c40.439,0 58.331,-31.371 58.331,-65.438c0,-34.067 -17.892,-65.438 -58.331,-65.438c-40.44,0 -58.331,31.371 -58.331,65.438Zm227.107,-62.497c0,0 -1.111,0 -2.737,0c-3.369,0 -6.6,1.338 -8.983,3.721c-2.382,2.382 -3.72,5.613 -3.72,8.983c0,19.958 0,56.41 0,56.41c0,20.833 -8.824,45.587 -37.009,45.587c-21.322,0 -29.655,-15.196 -29.655,-38.724c0,0 0,-41.648 0,-63.273c0,-3.37 -1.339,-6.601 -3.721,-8.983c-2.383,-2.383 -5.614,-3.721 -8.983,-3.721c-1.626,0 -2.737,0 -2.737,0l0,79.898c0,27.45 11.764,48.037 42.645,48.037c25.98,0 35.293,-13.97 40.44,-25.244l0.49,0l0,22.303c0,0 0.537,0 1.401,0c3.372,0 6.606,-1.34 8.989,-3.726c2.383,-2.386 3.719,-5.621 3.715,-8.993c-0.038,-31.809 -0.135,-112.275 -0.135,-112.275Zm104.029,21.077l0,-79.898c0,0 1.11,0 2.736,0c3.37,0 6.601,1.338 8.983,3.721c2.383,2.382 3.721,5.613 3.721,8.983c0,33.642 0,124.765 0,158.408c0,3.369 -1.338,6.6 -3.721,8.983c-2.382,2.382 -5.613,3.72 -8.983,3.72c-1.626,0 -2.736,0 -2.736,0l0,-19.852l-0.491,0c-8.333,15.931 -21.077,22.793 -38.968,22.793c-34.313,0 -51.469,-28.43 -51.469,-65.438c0,-37.989 14.705,-65.438 51.469,-65.438c24.508,0 36.763,17.891 38.968,24.018l0.491,0Zm-1389.65,106.756l-0.147,0c-11.733,0 -23.411,-3.213 -34.801,-6.894l0.697,-6.781c0.665,-6.061 4.925,-10.642 10.125,-9.792c8.284,2.616 18.115,4.879 27.182,4.907c15.487,-0.028 37.964,-8.622 38.077,-31.909c-0.18,-22.325 -21.256,-29.956 -40.486,-39.203c-19.601,-9.488 -37.824,-19.978 -37.88,-47.025c0.084,-30.935 24.002,-47.149 56.232,-47.346c8.841,0 18.993,1.221 28.707,3.636l-0.428,7.603c-0.63,5.233 -5.076,9.387 -10.383,8.998c-0.084,0 -0.084,0.079 -0.141,0.079c-5.031,-1.103 -10.175,-1.739 -16.613,-1.739c-0.028,0 -0.095,0 -0.152,0.011c-14.829,-0.022 -34.042,5.476 -34.115,26.406c0.372,19.702 21.307,26.354 40.458,36.146c19.517,9.916 37.863,22.027 37.919,50.869c-0.107,37.374 -28.155,51.775 -64.251,52.034Zm647.074,-2.696l-12.736,0l0,-125.751l11.801,0c0.04,0 0.051,0.028 0.107,0.028c5.808,0 10.513,4.705 10.513,10.53c0,0.022 0.022,0.022 0.022,0.034l0,9.398l0.484,0c6.917,-14.306 23.671,-22.944 41.184,-22.944c32.545,0 47.098,20.226 47.098,54.003l0,64.668c-0.264,5.577 -4.817,10.029 -10.456,10.029c-0.028,0 -0.028,0.005 -0.039,0.005l-12.697,0l0,-65.09c0,-29.348 -6.381,-43.643 -26.619,-44.869c-26.382,0 -38.223,21.205 -38.223,51.775l0,48.499c-0.428,5.408 -4.896,9.68 -10.411,9.68c-0.027,0 -0.028,0.005 -0.028,0.005Zm-208.378,0l-12.763,0l0,-106.999l-19.151,0c-0.028,0 -0.051,-0.028 -0.079,-0.028c-5.284,0 -9.618,-3.895 -10.372,-8.954l0,-9.77l29.602,0l0,-9.983c0,-30.581 7.895,-50.554 42.157,-50.554c5.903,0 10.856,0.737 15.532,1.48l-0.399,7.592c-0.321,5.538 -4.924,10.051 -10.468,9.646c-0.056,0 -0.045,0.062 -0.084,0.062c-0.383,-0.017 -0.771,-0.045 -1.142,-0.045c-19.956,0 -22.421,12.836 -22.421,29.843l0,11.959l33.288,0l0,8.751c-0.259,5.454 -4.649,9.821 -10.108,10.001l-23.18,0l0,97.905c-0.715,5.11 -5.06,9.089 -10.372,9.089c-0.028,0 -0.011,0.005 -0.04,0.005Zm-219.48,0l-12.556,0l0,-125.751l11.087,0c0.039,0 0.068,0.028 0.113,0.028c5.774,0 10.422,4.649 10.506,10.4l0,7.829l0.496,0c8.858,-14.554 21.441,-21.211 39.928,-21.211c14.554,0 29.096,7.4 35.764,24.413c8.628,-17.992 27.61,-24.413 38.944,-24.413c32.072,0 43.643,20.715 43.643,48.089l0,72.411c-1.058,4.699 -5.228,8.2 -10.231,8.2c-0.017,0 -0.017,0.005 -0.028,0.005l-12.905,0l0,-74.949c0,-15.538 -3.714,-35.01 -22.449,-35.01c-23.658,0 -33.04,23.18 -33.04,46.603l0,53.784c-0.495,5.357 -4.924,9.567 -10.4,9.567c-0.028,0 -0.028,0.005 -0.039,0.005l-12.724,0l0,-74.949c0,-15.538 -3.715,-35.01 -22.449,-35.01c-23.671,0 -33.041,23.18 -33.041,46.603l0,52.517c-0.028,0.102 -0.078,0.164 -0.078,0.321c0,5.802 -4.705,10.513 -10.513,10.513c-0.011,0 -0.027,0.005 -0.028,0.005Zm810.039,-0.143c0,0 1.111,0 2.737,0c3.369,0 6.6,-1.338 8.983,-3.72c2.382,-2.383 3.721,-5.614 3.721,-8.983c0,-33.643 0,-124.766 0,-158.408c0,-3.37 -1.339,-6.601 -3.721,-8.983c-2.383,-2.383 -5.614,-3.721 -8.983,-3.721c-1.626,0 -2.737,0 -2.737,0l0,183.815Zm46.166,-62.497c0,-28.92 14.46,-52.204 41.42,-52.204c26.959,0 41.42,23.284 41.42,52.204c0,28.92 -14.461,52.204 -41.42,52.204c-26.96,0 -41.42,-23.284 -41.42,-52.204Zm240.208,0c0,-24.264 7.598,-52.204 37.008,-52.204c27.45,0 37.009,29.411 37.009,52.204c0,22.793 -9.559,52.204 -37.009,52.204c-29.41,0 -37.008,-27.94 -37.008,-52.204Zm-765.954,46.877c27.109,0 39.186,-24.66 39.186,-47.109c0,-23.907 -14.537,-47.087 -39.186,-47.087c-24.897,0 -39.45,23.18 -39.45,47.087c0,22.449 12.077,47.109 39.45,47.109Z" style="fill:#007dbd;"/></g></svg>